#!OML:ASF H:\Terrain\Patient Classification 1\Animal1\Tuesday\Animal1.ASF
:FULLY-SPECIFIED
:DEGREES
2366
root 11.7718 15.2514 -13.2166 35.7675 -33.5006 -13.0271
lowerback 11.0676 0.176838 7.20221
upperback -8.74334 2.17491 5.03057
thorax -16.1529 0.541857 1.16053
lowerneck -7.21662 6.10802 -1.30793
upperneck -3.70944 8.24755 4.66697
head -0.21484 4.14927 1.8147
rclavicle 1.4889e-013 6.75868e-015
rhumerus -60.2429 17.7077 -99.5819
rradius 65.2848
rwrist -12.3511
rhand -25.9446 35.4388
rfingers 7.12502
rthumb 0.599279 5.45988
lclavicle 1.4889e-013 6.75868e-015
lhumerus -48.9933 -13.8023 100.667
lradius 39.3955
lwrist -36.6908
lhand -8.18674 41.5881
lfingers 7.12502
lthumb 17.7291 70.7999
rfemur -56.9388 16.8721 30.6143
rtibia 44.4726
rfoot -14.5115 -5.94571
rtoes -5.25682
lfemur -48.9065 18.0519 -3.44995
ltibia 56.9317
lfoot -29.8116 18.5077
ltoes -5.20853
2367
root 11.7705 15.2507 -13.2171 35.7802 -33.4639 -12.9826
lowerback 10.9914 0.121858 7.10148
upperback -8.75954 2.07517 5.04774
thorax -16.1291 0.508791 1.26092
lowerneck -6.91618 5.07695 -1.78561
upperneck -4.04783 6.92979 5.52945
head -0.373244 3.49004 2.14237
rclavicle -6.26172e-015 -2.34566e-014
rhumerus -60.2843 17.8276 -99.5925
rradius 65.2723
rwrist -12.398
rhand -25.609 35.8609
rfingers 7.12502
rthumb 0.923408 5.88315
lclavicle -6.26172e-015 -2.34566e-014
lhumerus -49.0196 -13.6933 100.648
lradius 39.4673
lwrist -36.7697
lhand -8.25175 41.7238
lfingers 7.12502
lthumb 17.6666 70.9412
rfemur -56.978 16.8557 30.5814
rtibia 44.4562
rfoot -14.4964 -6.27279
rtoes -6.42882
lfemur -49.0088 18.0013 -3.48482
ltibia 56.9793
lfoot -29.6817 18.7614
ltoes -6.28214
2368
root 11.7697 15.2441 -13.2199 36.0193 -33.32 -13.0944
lowerback 10.8065 0.0610007 7.12511
upperback -8.82253 1.98659 5.11807
thorax -16.0937 0.469803 1.35206
lowerneck -6.50407 3.85711 -2.45507
upperneck -4.58856 5.38403 6.56919
head -0.598008 2.71225 2.57078
rclavicle 1.59028e-015 -1.78906e-014
rhumerus -60.2286 17.9201 -99.5524
rradius 65.1405
rwrist -12.3444
rhand -25.3103 36.263
rfingers 7.12502
rthumb 1.21185 6.28671
lclavicle 1.59028e-015 -1.78906e-014
lhumerus -49.1008 -13.4783 100.557
lradius 39.6889
lwrist -37.0507
lhand -7.66033 41.9315
lfingers 7.12502
lthumb 18.2356 71.0967
rfemur -57.1835 16.8727 30.6744
rtibia 44.4269
rfoot -14.4396 -6.37874
rtoes -6.98988
lfemur -49.3008 18.0347 -3.38122
ltibia 57.0551
lfoot -29.6444 18.8885
ltoes -6.96235
2369
root 11.7689 15.241 -13.2196 36.2442 -33.186 -13.2961
lowerback 10.6586 -0.0242856 7.19261
upperback -8.84124 1.87762 5.22719
thorax -16.0292 0.420314 1.46582
lowerneck -5.73615 2.5532 -3.47801
upperneck -5.54957 3.77452 8.05442
head -1.00947 1.88903 3.23324
rclavicle 4.2043e-014 -1.24042e-013
rhumerus -60.0994 18.1806 -99.5685
rradius 64.9698
rwrist -12.2538
rhand -25.1879 36.3708
rfingers 7.12502
rthumb 1.33012 6.39519
lclavicle 4.2043e-014 -1.24042e-013
lhumerus -49.1574 -13.1822 100.439
lradius 39.8958
lwrist -37.3245
lhand -7.14702 41.9658
lfingers 7.12502
lthumb 18.7294 71.0841
rfemur -57.2785 16.8934 30.8714
rtibia 44.3899
rfoot -14.3437 -6.29912
rtoes -6.98728
lfemur -49.4829 18.0954 -3.18639
ltibia 57.1328
lfoot -29.5773 18.9472
ltoes -6.93946
2370
root 11.7671 15.2434 -13.2154 36.3156 -33.1893 -13.3894
lowerback 10.5452 -0.115545 7.14918
upperback -8.81443 1.73637 5.29685
thorax -15.9299 0.366741 1.60075
lowerneck -6.28072 1.20829 -3.22012
upperneck -4.97261 1.93009 8.18262
head -0.60849 0.982693 3.22099
rclavicle -9.03973e-014 -2.80286e-014
rhumerus -60.0046 18.5433 -99.6582
rradius 64.8557
rwrist -12.2859
rhand -25.1124 36.4646
rfingers 7.12502
rthumb 1.40305 6.48949
lclavicle -9.03973e-014 -2.80286e-014
lhumerus -49.1389 -12.8462 100.318
lradius 40.0015
lwrist -37.6273
lhand -7.4394 42.133
lfingers 7.12502
lthumb 18.4482 71.2782
rfemur -57.2292 16.8693 30.9916
rtibia 44.3478
rfoot -14.3531 -6.19614
rtoes -6.82653
lfemur -49.4804 18.1369 -3.11321
ltibia 57.1889
lfoot -29.5783 19.0027
ltoes -7.0469
2371
root 11.7674 15.2396 -13.2166 36.4767 -33.1672 -13.4716
lowerback 10.39 -0.231028 7.07283
upperback -8.82575 1.55573 5.38231
thorax -15.8522 0.298476 1.78254
lowerneck -6.09808 -0.207393 -4.16799
upperneck -5.01024 0.109272 9.48167
head -0.537188 0.0802062 3.83224
rclavicle 6.79844e-014 -5.56597e-015
rhumerus -59.937 18.8608 -99.7697
rradius 64.6854
rwrist -12.2872
rhand -25.1505 36.8093
rfingers 7.12502
rthumb 1.36625 6.83397
lclavicle 6.79844e-014 -5.56597e-015
lhumerus -49.0944 -12.5906 100.178
lradius 40.1261
lwrist -37.8829
lhand -7.61176 42.2782
lfingers 7.12502
lthumb 18.2824 71.439
rfemur -57.3532 16.883 31.0546
rtibia 44.3126
rfoot -14.3014 -6.07058
rtoes -6.67694
lfemur -49.6567 18.1908 -3.07044
ltibia 57.2573
lfoot -29.5733 19.0616
ltoes -7.49118
2372
root 11.7678 15.2354 -13.2188 36.6501 -33.077 -13.6169
lowerback 10.2993 -0.37714 6.99305
upperback -8.84047 1.34851 5.53297
thorax -15.8233 0.222134 2.04828
lowerneck -5.85324 -1.5929 -4.94277
upperneck -5.06419 -1.69597 10.4709
head -0.441858 -0.819488 4.3068
rclavicle -5.725e-014 -1.05356e-014
rhumerus -59.8659 19.2058 -99.8938
rradius 64.4895
rwrist -12.2238
rhand -25.1789 36.7669
rfingers 7.12502
rthumb 1.3388 6.79133
lclavicle -5.725e-014 -1.05356e-014
lhumerus -49.1124 -12.3743 100.019
lradius 40.3317
lwrist -38.075
lhand -6.86514 42.2798
lfingers 7.12502
lthumb 19.0005 71.3718
rfemur -57.463 16.9604 31.1476
rtibia 44.2842
rfoot -14.1691 -6.06755
rtoes -6.69909
lfemur -49.8271 18.2239 -2.92721
ltibia 57.3288
lfoot -29.585 19.0564
ltoes -7.54974
2373
root 11.7679 15.2348 -13.2175 36.7552 -33.0813 -13.6949
lowerback 10.2511 -0.49693 6.78897
upperback -8.84645 1.16692 5.73807
thorax -15.8112 0.175485 2.43966
lowerneck -5.73497 -2.94854 -5.75267
upperneck -4.93862 -3.47879 11.3235
head -0.233003 -1.70074 4.73519
rclavicle -1.63997e-014 -2.54444e-014
rhumerus -59.9031 19.7311 -99.9317
rradius 64.4995
rwrist -12.2893
rhand -25.0973 36.4316
rfingers 7.12502
rthumb 1.41758 6.45653
lclavicle -1.63997e-014 -2.54444e-014
lhumerus -49.1543 -11.9836 99.9912
lradius 40.5647
lwrist -38.3329
lhand -6.19103 42.3142
lfingers 7.12502
lthumb 19.6487 71.3412
rfemur -57.5042 16.9808 31.192
rtibia 44.2507
rfoot -14.3175 -5.90543
rtoes -5.88461
lfemur -49.8938 18.2687 -2.88301
ltibia 57.3755
lfoot -29.5982 19.076
ltoes -7.14301
2374
root 11.7674 15.2331 -13.2149 36.8076 -33.0892 -13.7489
lowerback 10.2199 -0.586539 6.68783
upperback -8.83309 1.04011 5.89996
thorax -15.7821 0.139887 2.71036
lowerneck -5.43207 -4.234 -6.46534
upperneck -5.08405 -5.14626 12.4742
head -0.0809956 -2.54233 4.70794
rclavicle -2.08724e-015 -2.18663e-014
rhumerus -59.9689 20.1564 -99.911
rradius 64.638
rwrist -12.3821
rhand -25.1114 36.5932
rfingers 7.12502
rthumb 1.40402 6.61806
lclavicle -2.08724e-015 -2.18663e-014
lhumerus -49.155 -11.6465 100.063
lradius 40.734
lwrist -38.6121
lhand -6.13854 42.4126
lfingers 7.12502
lthumb 19.6992 71.4345
rfemur -57.4677 16.9071 31.2869
rtibia 44.1723
rfoot -14.5494 -5.67939
rtoes -5.46122
lfemur -49.9006 18.298 -2.84638
ltibia 57.3605
lfoot -29.5867 19.0628
ltoes -6.73308
2375
root 11.7614 15.2376 -13.2066 36.5616 -32.8301 -13.8192
lowerback 10.3967 -0.752789 6.88023
upperback -8.73622 0.87084 5.9967
thorax -15.7827 0.0486391 2.75376
lowerneck -4.59595 -5.3539 -6.55952
upperneck -5.72985 -6.63167 12.6869
head -0.252366 -3.3255 4.77166
rclavicle -1.28216e-014 -9.64106e-014
rhumerus -59.8874 20.296 -99.9187
rradius 64.6481
rwrist -12.3455
rhand -25.002 36.9475
rfingers 7.12502
rthumb 1.50965 6.97314
lclavicle -1.28216e-014 -9.64106e-014
lhumerus -49.2155 -11.5192 100.051
lradius 40.9288
lwrist -38.7628
lhand -6.25602 42.4568
lfingers 7.12502
lthumb 19.5862 71.4902
rfemur -57.032 16.7455 31.5697
rtibia 44.0792
rfoot -14.5806 -5.87233
rtoes -6.35452
lfemur -49.5918 18.1093 -2.55839
ltibia 57.3061
lfoot -29.6777 18.9487
ltoes -6.81127
2376
root 11.753 15.2534 -13.1927 35.813 -32.352 -13.8001
lowerback 11.0373 -1.069 7.12176
upperback -8.53865 0.562885 6.14391
thorax -15.964 -0.106239 2.87333
lowerneck -3.98375 -6.28877 -6.87666
upperneck -6.04486 -7.87877 12.8984
head -0.301086 -3.97031 4.87018
rclavicle -1.02772e-013 -2.66371e-014
rhumerus -59.7602 20.5328 -99.9411
rradius 64.5352
rwrist -12.2866
rhand -24.7237 37.1738
rfingers 7.12502
rthumb 1.77843 7.20147
lclavicle -1.02772e-013 -2.66371e-014
lhumerus -49.358 -11.1747 99.9633
lradius 41.2314
lwrist -38.9208
lhand -5.88009 42.3698
lfingers 7.12502
lthumb 19.9476 71.366
rfemur -56.057 16.4157 31.9727
rtibia 43.966
rfoot -14.5574 -6.34946
rtoes -7.47545
lfemur -48.781 17.6535 -2.12387
ltibia 57.137
lfoot -29.6591 18.9178
ltoes -7.46436
2377
root 11.7529 15.251 -13.192 35.9144 -32.4355 -13.885
lowerback 10.9847 -1.14728 7.03123
upperback -8.54938 0.447178 6.26929
thorax -15.9464 -0.141046 3.0961
lowerneck -3.74254 -7.09546 -7.76033
upperneck -5.90201 -8.95406 13.5785
head -0.114109 -4.50071 5.1808
rclavicle 5.82936e-014 5.96354e-015
rhumerus -59.7372 20.8883 -100.006
rradius 64.4724
rwrist -12.2057
rhand -24.6012 37.2585
rfingers 7.12502
rthumb 1.89669 7.28719
lclavicle 5.82936e-014 5.96354e-015
lhumerus -49.458 -10.8179 99.8682
lradius 41.4221
lwrist -39.0985
lhand -5.45094 42.2806
lfingers 7.12502
lthumb 20.3601 71.2333
rfemur -56.0757 16.4718 32.0164
rtibia 43.9013
rfoot -14.4788 -6.39212
rtoes -8.28307
lfemur -48.7676 17.7742 -2.11031
ltibia 57.0602
lfoot -29.5569 18.9102
ltoes -7.51705
